<?xml version="1.0" encoding="UTF-8"?>
<svg version="1.1" xmlns="http://www.w3.org/2000/svg" width="1730" height="486">
<path d="M0 0 C19.14 0 38.28 0 58 0 C59.96447947 5.23861192 61.50083206 9.60617721 62.6875 14.9375 C63.02326102 16.41439942 63.36066206 17.89092644 63.69921875 19.3671875 C63.89563965 20.22538086 64.09206055 21.08357422 64.29443359 21.96777344 C65.64800092 27.78483442 67.06351199 33.5871377 68.47280884 39.39089966 C68.98495788 41.50053867 69.49587033 43.61047398 70.0065918 45.72045898 C72.00516464 53.96582795 74.04475829 62.19970152 76.12524414 70.42480469 C76.95961546 73.83494524 77.71759639 77.25157179 78.4375 80.6875 C80.23089013 89.2376086 82.2912901 97.72071797 84.33398438 106.21386719 C85.00686942 109.02873674 85.66903836 111.84593245 86.328125 114.6640625 C86.54549316 115.58952881 86.76286133 116.51499512 86.98681641 117.46850586 C87.39762987 119.21878496 87.80632818 120.96956256 88.21240234 122.72094727 C89.58687457 128.55343461 91.2213716 134.27821459 93 140 C93.24121582 139.08524902 93.48243164 138.17049805 93.73095703 137.22802734 C98.0097305 121.00732703 102.30115537 104.79153349 106.73828125 88.61328125 C108.17174126 83.38505386 109.56338089 78.14626876 110.953125 72.90625 C111.72062405 70.02738198 112.50537033 67.15360897 113.296875 64.28125 C116.6895875 51.95967267 119.93625215 39.60448516 123.10839844 27.22460938 C124.06793296 23.48193767 125.0321788 19.74053728 126 16 C126.17881714 15.30718933 126.35763428 14.61437866 126.54187012 13.90057373 C127.08397754 11.80639306 127.63112469 9.71359163 128.1796875 7.62109375 C128.66671143 5.75408813 128.66671143 5.75408813 129.16357422 3.84936523 C130 1 130 1 131 0 C132.77991924 -0.09370624 134.56356739 -0.11744271 136.34594727 -0.11352539 C138.05760826 -0.11341209 138.05760826 -0.11341209 139.80384827 -0.11329651 C141.0454924 -0.10813522 142.28713654 -0.10297394 143.56640625 -0.09765625 C145.46204567 -0.09553383 145.46204567 -0.09553383 147.39598083 -0.09336853 C150.76124889 -0.08870582 154.1264499 -0.0797148 157.49169922 -0.06866455 C160.9234967 -0.05844846 164.35530109 -0.05387049 167.78710938 -0.04882812 C174.52475824 -0.0377738 181.26237525 -0.0210171 188 0 C191.02483131 9.41600715 193.8350021 18.81055353 196.125 28.4375 C197.60222061 34.61387915 199.16983775 40.65305711 201.24755859 46.65454102 C202.43077135 50.34277105 203.30327229 54.10124003 204.21875 57.86328125 C205.52529422 63.10905628 207.02095392 68.3007332 208.5 73.5 C210.50183969 80.53703472 212.4209658 87.57982851 214.17382812 94.68310547 C215.70173593 100.81731218 217.3013087 106.93280938 218.90673828 113.04711914 C219.30444037 114.56575192 219.69992491 116.08496706 220.09326172 117.60473633 C220.67152552 119.83815471 221.25689676 122.06960649 221.84375 124.30078125 C222.01571899 124.97071609 222.18768799 125.64065094 222.36486816 126.33088684 C223.54518981 130.77723277 225.11057352 134.82211045 227 139 C227.43699219 137.14375 227.43699219 137.14375 227.8828125 135.25 C230.21055709 125.39970142 232.59305458 115.5657905 235.0625 105.75 C236.73082919 99.11385027 238.38509332 92.476796 239.9375 85.8125 C245.36040183 62.54990481 251.12371121 39.3723406 256.94433594 16.20678711 C258.29977305 10.80541412 259.64935658 5.40257367 261 0 C297.3 0 333.6 0 371 0 C371 72.93 371 145.86 371 221 C352.85 221 334.7 221 316 221 C315.67 153.35 315.34 85.7 315 16 C311.44575195 28.43986818 307.89545916 40.87569054 304.45898438 53.34765625 C303.23100327 57.76611946 301.9789906 62.14946968 300.48046875 66.484375 C298.97062869 70.9051271 297.86420015 75.39263425 296.75927734 79.92919922 C295.54611986 84.83566059 294.18110307 89.69750341 292.8125 94.5625 C292.36620239 96.15457275 292.36620239 96.15457275 291.91088867 97.77880859 C289.2884729 107.08196275 286.53803787 116.34538021 283.77294922 125.60693359 C281.74846443 132.40829259 279.83884308 139.21772798 278.0546875 146.0859375 C276.37912848 152.4177153 274.48022906 158.68855221 272.63427734 164.97216797 C270.89389077 170.90619005 269.19443454 176.84781065 267.5625 182.8125 C265.38764897 190.73657112 263.07811052 198.61972523 260.75 206.5 C260.21934937 208.30174683 260.21934937 208.30174683 259.67797852 210.13989258 C259.34596436 211.25904053 259.0139502 212.37818848 258.671875 213.53125 C258.3737793 214.53736328 258.07568359 215.54347656 257.76855469 216.58007812 C257 219 257 219 256 221 C237.85 221 219.7 221 201 221 C196.57103892 206.10258545 192.17876332 191.19730894 187.86434937 176.26651001 C185.43483639 167.86492447 182.94893786 159.48355141 180.375 151.125 C177.64109265 142.24548208 175.10906662 133.31983532 172.63330078 124.36523438 C170.35343191 116.15924601 167.91936101 108.00744776 165.39648438 99.87304688 C160 82.42140886 160 82.42140886 160 78 C159.34 78 158.68 78 158 78 C157.62875 79.794375 157.62875 79.794375 157.25 81.625 C156.36644455 85.60602852 155.30769089 89.50949947 154.171875 93.42578125 C151.70197649 102.00649133 149.34743205 110.61752966 147 119.23242188 C144.81390844 127.20397058 142.4731216 135.11302818 140 143 C137.6115644 150.6786158 135.31114616 158.37175792 133.12109375 166.109375 C131.62047209 171.36222983 130.0157872 176.58397746 128.42895508 181.8112793 C126.9458745 186.73462438 125.5267387 191.67079531 124.1640625 196.62890625 C123.85573486 197.74934326 123.54740723 198.86978027 123.22973633 200.02416992 C122.63024514 202.21421956 122.03610045 204.40574161 121.44799805 206.59887695 C121.1725415 207.60523193 120.89708496 208.61158691 120.61328125 209.6484375 C120.37391846 210.53708496 120.13455566 211.42573242 119.88793945 212.34130859 C119 215 119 215 116 221 C98.18 221 80.36 221 62 221 C59.35804542 214.39511354 57.00793428 208.11356597 55.125 201.3125 C54.87451904 200.42401367 54.62403809 199.53552734 54.3659668 198.62011719 C52.16375396 190.74400002 50.09830915 182.83177927 48.09228516 174.90356445 C46.83109859 169.96604993 45.41711276 165.14389311 43.76586914 160.32373047 C42.28373198 155.82676474 41.06940877 151.25144946 39.8125 146.6875 C39.19468882 144.46205114 38.57617261 142.23679791 37.95703125 140.01171875 C37.63686035 138.86106934 37.31668945 137.71041992 36.98681641 136.52490234 C35.34942448 130.6761481 33.67433101 124.83826657 32 119 C29.4468334 110.09213547 26.92413221 101.17665942 24.4375 92.25 C20.60589215 78.50936196 16.62663176 64.81193715 12.5546875 51.140625 C10.5056539 44.25128372 8.56117304 37.36799179 6.890625 30.375 C6.15176722 27.57511787 5.34395882 24.82648864 4.484375 22.0625 C4.21036865 21.17796143 3.9363623 20.29342285 3.65405273 19.38208008 C3.10497145 17.62396862 2.54756384 15.86842968 1.98071289 14.1159668 C1.72539795 13.29781494 1.47008301 12.47966309 1.20703125 11.63671875 C0.9747583 10.91186279 0.74248535 10.18700684 0.50317383 9.44018555 C0 7 0 7 0 0 Z " fill="#FEFEFE" transform="translate(977,120)"/>
<path d="M0 0 C18.15 0 36.3 0 55 0 C55 57.09 55 114.18 55 173 C78.76 173 102.52 173 127 173 C127.33 169.37 127.66 165.74 128 162 C132.0331209 150.52111743 139.76882942 141.13415947 150.5625 135.4375 C163.66711339 129.31678237 176.79344813 126.27866003 191 124 C192.24007812 123.80019531 193.48015625 123.60039062 194.7578125 123.39453125 C200.80608439 122.67983246 206.92070336 122.89577304 213 122.9375 C214.87751953 122.94426758 214.87751953 122.94426758 216.79296875 122.95117188 C219.86202941 122.96288585 222.93098907 122.97928927 226 123 C225.53907666 121.40250946 225.07328854 119.80642206 224.60546875 118.2109375 C224.34660889 117.32196777 224.08774902 116.43299805 223.82104492 115.51708984 C222.1717764 110.46090236 219.9655323 107.27962471 215.3125 104.75 C204.75761729 100.05023776 195.32373225 100.10539143 184.45703125 103.66015625 C177.62670022 106.30739189 170.97052159 109.60754866 165.25 114.21484375 C163 116 163 116 161 116.0625 C158.13584912 114.54091985 156.18775898 112.33823976 154 110 C152.71057271 108.72689458 151.41871913 107.45624385 150.125 106.1875 C146.7671476 102.83598317 143.61877891 99.35682741 140.54296875 95.74609375 C138.92757913 93.85035101 138.92757913 93.85035101 136.5625 91.8125 C135 90 135 90 134.54296875 87.6953125 C135.21050458 83.75856273 137.67235998 82.26970511 140.75 80.0625 C141.33982666 79.62719971 141.92965332 79.19189941 142.53735352 78.7434082 C152.11111318 71.85526798 162.76652245 67.46442289 174 64 C174.81001465 63.73815918 175.6200293 63.47631836 176.45458984 63.20654297 C185.02010498 60.71537721 193.30267659 60.47451533 202.15185547 60.49902344 C204.60115259 60.49999058 207.04725015 60.45834539 209.49609375 60.4140625 C224.59823945 60.30022318 239.58346185 62.86570247 252 72 C253.3921875 72.99 253.3921875 72.99 254.8125 74 C264.5177118 82.8733365 270.28757422 94.81103193 273.125 107.5 C273.29386719 108.22058594 273.46273438 108.94117188 273.63671875 109.68359375 C275.42564424 117.47316696 276.14572313 124.80952082 276.11352539 132.79077148 C276.11367142 133.74764359 276.11381744 134.70451569 276.1139679 135.69038391 C276.11327462 138.83397741 276.10550971 141.97751068 276.09765625 145.12109375 C276.09578999 147.30827299 276.09436707 149.49545264 276.09336853 151.68263245 C276.08955973 157.42500981 276.07974346 163.16736168 276.06866455 168.909729 C276.05661154 175.80727359 276.05204039 182.70482673 276.04621124 189.60237885 C276.0365308 200.06827027 276.01736277 210.5341058 276 221 C259.83 221 243.66 221 227 221 C226.67 217.37 226.34 213.74 226 210 C225.175 210.721875 224.35 211.44375 223.5 212.1875 C207.85082646 225.01765382 190.71762284 226.90034011 171 225 C161.01265661 223.37610371 149.25163391 219.25163391 142 212 C141.67 214.97 141.34 217.94 141 221 C94.47 221 47.94 221 0 221 C0 148.07 0 75.14 0 0 Z M180 163 C177.18975728 166.18241 176.1029737 169.2791841 175.5 173.5 C176.09875039 177.69125274 177.10326217 180.90348714 180 184 C188.66993379 189.26559282 197.29067181 189.95411238 207.0625 187.875 C216.29410183 185.35517912 220.17733812 180.37848364 224.8359375 172.26953125 C226.96343324 168.12162849 227.10814093 164.92223426 227.0625 160.3125 C227.05347656 159.13300781 227.04445313 157.95351563 227.03515625 156.73828125 C227.02355469 155.83464844 227.01195312 154.93101562 227 154 C212.53064914 153.66517205 191.80759088 153.715608 180 163 Z " fill="#FEFEFE" transform="translate(44,120)"/>
<path d="M0 0 C0.93585938 0.01675781 1.87171875 0.03351563 2.8359375 0.05078125 C15.03948453 0.61131163 26.43794348 5.39251215 36 13 C36 13.66 36 14.32 36 15 C36.61875 15.268125 37.2375 15.53625 37.875 15.8125 C40 17 40 17 42 20 C42.33 15.05 42.66 10.1 43 5 C59.83 5 76.66 5 94 5 C94.06793092 24.52473951 94.1231057 44.04938215 94.15543652 63.57421017 C94.17085263 72.64155775 94.19184061 81.70882625 94.22631836 90.77612305 C94.25638275 98.68657809 94.27561311 106.59697581 94.28226548 114.5074864 C94.28614913 118.68933279 94.29516416 122.87101531 94.31719017 127.05280876 C94.33782584 131.00331576 94.34378029 134.95359422 94.33932304 138.90415001 C94.34013633 140.34026082 94.3459386 141.77638074 94.35761642 143.21244431 C94.50636568 162.47915401 91.20851863 182.4146533 81 199 C80.401875 200.010625 79.80375 201.02125 79.1875 202.0625 C72.84145588 210.58433067 65.8700278 217.15477431 57 223 C55.906875 223.721875 54.81375 224.44375 53.6875 225.1875 C24.93788545 240.62078477 -10.97842502 237.98700483 -41.296875 229.61328125 C-54.10151911 225.73752034 -66.25041124 219.96214726 -77 212 C-76.47045999 207.49890989 -74.59613697 204.58060481 -72 201 C-70.97748444 199.54284567 -69.95685627 198.08436617 -68.9375 196.625 C-68.04417969 195.36042969 -68.04417969 195.36042969 -67.1328125 194.0703125 C-65.47548032 191.68448266 -63.85106129 189.28544687 -62.2421875 186.8671875 C-61.75886963 186.14708496 -61.27555176 185.42698242 -60.77758789 184.68505859 C-59.81373468 183.24755047 -58.85696835 181.80526079 -57.90795898 180.35791016 C-57.23615601 179.36090088 -57.23615601 179.36090088 -56.55078125 178.34375 C-56.15544189 177.74755859 -55.76010254 177.15136719 -55.3527832 176.53710938 C-53.71404828 174.67508536 -52.33475164 173.82706233 -50 173 C-47.25 174.25 -47.25 174.25 -45 176 C-45 176.66 -45 177.32 -45 178 C-44.30003906 178.26167969 -43.60007812 178.52335938 -42.87890625 178.79296875 C-39.76128172 180.10008677 -36.90183448 181.68805911 -33.9375 183.3125 C-18.970054 191.07860841 -2.17097201 194.43569241 14.203125 189.91796875 C20.21175884 187.94586128 25.2926537 185.27940572 30 181 C30.33 180.34 30.66 179.68 31 179 C31.66 179 32.32 179 33 179 C33.37125 178.0409375 33.37125 178.0409375 33.75 177.0625 C34.45761485 175.32884362 35.18777474 173.60292693 35.98828125 171.91015625 C39.89990555 163.58906455 40.14788299 156.08658793 40 147 C39.40574219 147.51949219 38.81148438 148.03898438 38.19921875 148.57421875 C22.61717916 161.68445735 4.86730684 164.58221978 -15 163 C-33.95587643 160.68265569 -49.55061823 150.96706768 -61.96875 136.625 C-75.65279494 118.94100346 -81.29425969 93.85227825 -78.74951172 71.83251953 C-78.05136994 67.16996835 -77.06194318 62.59192098 -76 58 C-75.67515625 56.50339844 -75.67515625 56.50339844 -75.34375 54.9765625 C-71.13663349 37.4969951 -59.45725922 21.55818022 -45 11 C-30.53460948 2.54487737 -16.70061652 -0.52977787 0 0 Z M-16 53 C-23.93242558 61.22180592 -27.3863068 72.09654189 -27.21484375 83.375 C-26.4947211 92.17358953 -24.38209701 99.95800391 -19 107 C-18.34 107.9075 -17.68 108.815 -17 109.75 C-10.93969784 116.56783993 -2.71681026 120.54502894 6.38671875 121.26953125 C18.28305376 120.74862664 26.93799734 115.54093351 35 107 C41.49000973 99.24759436 43.68830017 88.80435505 43.34375 78.85546875 C42.04540895 68.07038575 38.15906618 59.42045477 29.98046875 52.22265625 C15.70178479 41.05634317 -2.31256448 40.99389306 -16 53 Z " fill="#FEFEFE" transform="translate(403,180)"/>
<path d="M0 0 C49.17 0 98.34 0 149 0 C149 15.51 149 31.02 149 47 C117.32 47 85.64 47 53 47 C53 59.87 53 72.74 53 86 C83.03 86 113.06 86 144 86 C144 100.85 144 115.7 144 131 C113.97 131 83.94 131 53 131 C53 145.19 53 159.38 53 174 C86.66 174 120.32 174 155 174 C155 189.51 155 205.02 155 221 C103.85 221 52.7 221 0 221 C0 148.07 0 75.14 0 0 Z " fill="#FEFEFE" transform="translate(1527,120)"/>
<path d="M0 0 C0 0.66 0 1.32 0 2 C0.56203125 2.08121094 1.1240625 2.16242188 1.703125 2.24609375 C4.73254653 3.24044469 6.41992632 4.90375527 8.75 7.0625 C9.54921875 7.79597656 10.3484375 8.52945313 11.171875 9.28515625 C11.77515625 9.85105469 12.3784375 10.41695312 13 11 C12.42134311 14.25731385 11.50702874 15.85046336 9.12890625 18.12890625 C8.55462891 18.68900391 7.98035156 19.24910156 7.38867188 19.82617188 C6.78603516 20.39916016 6.18339844 20.97214844 5.5625 21.5625 C4.37412617 22.70738113 3.18784448 23.85443879 2.00390625 25.00390625 C1.47611572 25.50736572 0.9483252 26.0108252 0.40454102 26.52954102 C-1.22707266 28.15255558 -1.22707266 28.15255558 -3 31 C-3.66 31 -4.32 31 -5 31 C-5.268125 31.639375 -5.53625 32.27875 -5.8125 32.9375 C-7 35 -7 35 -10 36 C-10.69348365 37.31958427 -11.35673823 38.65521879 -12 40 C-13.69140625 41.8515625 -13.69140625 41.8515625 -15.5625 43.625 C-18.14015389 46.04521959 -18.14015389 46.04521959 -20 49 C-21.9375 48.6875 -21.9375 48.6875 -24 48 C-24.33 47.01 -24.66 46.02 -25 45 C-26.871684 43.94414936 -26.871684 43.94414936 -29 43 C-30.18298951 42.08318313 -31.34898679 41.14415352 -32.5 40.1875 C-43.80468622 31.69337113 -56.53380978 29.81120535 -70.375 31.625 C-76.52803209 32.8854594 -82.38289153 34.75166483 -86.44140625 39.7890625 C-89.19611241 44.60739871 -90.07741396 49.54618773 -89 55 C-86.01342933 62.65222715 -80.52838308 65.95791803 -73.33203125 69.203125 C-66.52064771 71.98759744 -59.57936426 74.02481652 -52.5 76 C-36.93221603 80.34529961 -22.74745581 85.7904992 -10 96 C-9.01 96.7425 -8.02 97.485 -7 98.25 C-6.01 99.11625 -6.01 99.11625 -5 100 C-5 100.66 -5 101.32 -5 102 C-4.40058594 102.26039063 -3.80117187 102.52078125 -3.18359375 102.7890625 C4.09777901 106.82703308 7.56963423 116.49588258 10 124 C13.65751393 142.5618832 12.43043815 164.98602266 1.98828125 181.10546875 C-0.23873276 184.17198543 -2.56256083 187.09847887 -5 190 C-5.65484375 190.79277344 -6.3096875 191.58554687 -6.984375 192.40234375 C-17.72420962 204.24530092 -32.65967716 210.65812471 -48 214 C-49.08925781 214.24363281 -50.17851563 214.48726562 -51.30078125 214.73828125 C-84.7322113 220.73879434 -117.98339873 213.00855656 -145.90625 194.203125 C-154.16304659 188.323285 -154.16304659 188.323285 -156 185 C-155.59527684 181.12589126 -154.64017572 179.13620129 -151.9206543 176.38720703 C-150.94910652 175.39190475 -150.94910652 175.39190475 -149.95793152 174.37649536 C-149.2538063 173.67733002 -148.54968109 172.97816467 -147.82421875 172.2578125 C-146.74186699 171.16616287 -146.74186699 171.16616287 -145.63764954 170.05245972 C-144.11183529 168.51954972 -142.58087027 166.99175185 -141.04516602 165.46875 C-138.69081397 163.12829441 -136.36147533 160.76480558 -134.03320312 158.3984375 C-132.54832674 156.91261027 -131.06204537 155.42818552 -129.57421875 153.9453125 C-128.87616623 153.23400177 -128.17811371 152.52269104 -127.45890808 151.78982544 C-126.80175308 151.14520355 -126.14459808 150.50058167 -125.4675293 149.83642578 C-124.60601509 148.97635422 -124.60601509 148.97635422 -123.72709656 148.09890747 C-122 147 -122 147 -119.88850403 147.224823 C-117.44534071 148.22767181 -116.3030555 149.58160054 -114.5625 151.5625 C-103.7662489 162.67745962 -88.80479788 169.37431557 -73.3125 169.625 C-65.05890031 169.49919714 -57.4642102 167.75657609 -51.00390625 162.3203125 C-46.54631066 157.50995754 -44.76354928 152.75296038 -44.875 146.1875 C-45.67112529 139.9037968 -49.25856316 135.96921586 -54 132 C-59.55161418 128.39179906 -65.30245887 126.33367974 -71.5625 124.25 C-73.61362587 123.54918491 -75.66439831 122.84733467 -77.71484375 122.14453125 C-78.75624512 121.78955566 -79.79764648 121.43458008 -80.87060547 121.06884766 C-108.27448007 111.70902842 -108.27448007 111.70902842 -119 105 C-119.96035156 104.40832031 -120.92070313 103.81664062 -121.91015625 103.20703125 C-132.92178682 95.86089531 -141.38044014 84.77033983 -144.53417969 71.77929688 C-147.64299612 53.23067723 -146.94472999 32.55258739 -135.9375 16.875 C-134.64606205 15.23321156 -133.33411403 13.6073024 -132 12 C-131.38125 11.17628906 -130.7625 10.35257813 -130.125 9.50390625 C-122.69965122 0.75455227 -112.50428229 -4.80622483 -102 -9 C-101.12085938 -9.37769531 -100.24171875 -9.75539063 -99.3359375 -10.14453125 C-67.66065615 -22.91990908 -28.80633206 -17.2105628 0 0 Z " fill="#FEFEFE" transform="translate(1506,131)"/>
<path d="M0 0 C17.49 0 34.98 0 53 0 C53.06058594 6.14109375 53.12117187 12.2821875 53.18359375 18.609375 C53.224129 22.51953757 53.26492302 26.42969406 53.30664062 30.33984375 C53.37270893 36.53464566 53.43786297 42.729447 53.49731445 48.92431641 C53.54535105 53.92346912 53.59770295 58.92256034 53.65294075 63.92163849 C53.67318786 65.82080792 53.69192779 67.71999408 53.70907402 69.61919403 C52.71738112 92.80807028 52.71738112 92.80807028 62.625 112.625 C68.60142933 116.08503803 75.30057512 115.75815037 82 115 C88.28722029 112.49584398 92.91986412 107.95561142 96 102 C100.73167261 90.91926706 100.60420265 80.10059991 100.609375 68.26171875 C100.62438357 66.28488326 100.64111626 64.30806018 100.65948486 62.33125305 C100.70287018 57.1709429 100.72309307 52.01080181 100.73822021 46.8503418 C100.76136567 40.63584819 100.8137615 34.42153833 100.86116028 28.20719147 C100.92964808 18.80474681 100.96136089 9.40282777 101 0 C118.49 0 135.98 0 154 0 C154 51.48 154 102.96 154 156 C136.84 156 119.68 156 102 156 C101.505 148.575 101.505 148.575 101 141 C99.68 142.381875 98.36 143.76375 97 145.1875 C86.6265049 155.46449747 73.66307308 160.67974567 59 161 C58.26652344 161.03867187 57.53304687 161.07734375 56.77734375 161.1171875 C42.25494235 161.59160352 29.2682998 157.56688761 18.0625 148.1875 C10.54898248 140.92536411 5.9402662 132.97946281 3 123 C2.75767985 122.23886996 2.51535971 121.47773993 2.26569653 120.69354534 C0.19874878 113.81647777 -0.4171601 107.62531188 -0.34057617 100.4699707 C-0.34101425 99.37596451 -0.34145233 98.28195831 -0.34190369 97.15480042 C-0.33983201 93.57827211 -0.31657758 90.00222655 -0.29296875 86.42578125 C-0.28736704 83.93043778 -0.28309966 81.435091 -0.28010559 78.93974304 C-0.2687022 72.4016494 -0.23927387 65.86375863 -0.20599365 59.32574463 C-0.16783912 51.46534211 -0.15611016 43.60483084 -0.13863373 35.74436188 C-0.1096339 23.82943388 -0.05211464 11.91495024 0 0 Z " fill="#FEFEFE" transform="translate(510,185)"/>
<path d="M0 0 C13.14482986 12.39438838 20.50919081 27.08569294 21.21121407 45.34383965 C21.24368033 48.10203768 21.24478676 50.85857027 21.23461914 53.61694336 C21.23476517 54.6615976 21.23491119 55.70625183 21.23506165 56.78256226 C21.23436776 60.21834424 21.22659991 63.65407129 21.21875 67.08984375 C21.21688396 69.47880524 21.21546093 71.86776712 21.21446228 74.25672913 C21.21065175 80.53175928 21.20083398 86.80676613 21.1897583 93.08178711 C21.17770998 100.61759205 21.17313497 108.15340479 21.16730499 115.68921661 C21.15762144 127.12616059 21.13845461 138.56305349 21.12109375 150 C3.63109375 150 -13.85890625 150 -31.87890625 150 C-31.91628906 143.66554688 -31.95367188 137.33109375 -31.9921875 130.8046875 C-32.0225003 126.76690103 -32.05366981 122.72915689 -32.08789062 118.69140625 C-32.14200358 112.29706076 -32.19312089 105.90279896 -32.2253418 99.50830078 C-32.25154897 94.34693368 -32.29207166 89.18585129 -32.34209251 84.02466202 C-32.35864436 82.06576228 -32.37023074 80.10681342 -32.37652016 78.14785385 C-32.15190577 58.7778155 -32.15190577 58.7778155 -38.87890625 41 C-39.20890625 40.01 -39.53890625 39.02 -39.87890625 38 C-42.35021543 36.84478498 -42.35021543 36.84478498 -44.87890625 36 C-45.20890625 35.67 -45.53890625 35.34 -45.87890625 35 C-54.37429805 34.20102863 -62.15858732 33.59128774 -69.11328125 39.21875 C-77.99306835 48.17711929 -78.99738989 57.95558938 -79.08422852 70.078125 C-79.09412811 70.94736099 -79.10402771 71.81659698 -79.11422729 72.71217346 C-79.14557465 75.55808884 -79.17049278 78.40402086 -79.1953125 81.25 C-79.2159052 83.23397227 -79.23690225 85.21794039 -79.25828552 87.2019043 C-79.31326713 92.40334691 -79.36278108 97.60482754 -79.41113281 102.80633545 C-79.47039543 109.05818301 -79.53649082 115.30996167 -79.6014328 121.56175232 C-79.69914111 131.04112584 -79.788203 140.52054521 -79.87890625 150 C-97.36890625 150 -114.85890625 150 -132.87890625 150 C-132.87890625 98.52 -132.87890625 47.04 -132.87890625 -6 C-116.04890625 -6 -99.21890625 -6 -81.87890625 -6 C-81.38390625 1.92 -81.38390625 1.92 -80.87890625 10 C-79.97140625 8.845 -79.06390625 7.69 -78.12890625 6.5 C-59.71592579 -14.43734068 -21.5727678 -18.36653992 0 0 Z " fill="#FEFEFE" transform="translate(810.87890625,191)"/>
<path d="M0 0 C0.80788971 0.00392761 1.61577942 0.00785522 2.44815063 0.01190186 C18.54088131 0.12218194 33.22896538 1.58799045 46.5625 11.5625 C47.1915625 12.01238281 47.820625 12.46226562 48.46875 12.92578125 C56.18928114 18.93628247 61.13854572 27.53571144 64.5625 36.5625 C65.08650391 37.84833984 65.08650391 37.84833984 65.62109375 39.16015625 C71.53919541 54.92008265 70.84680901 72.30025903 70.7578125 88.8828125 C70.75407112 90.96458804 70.75122949 93.04636536 70.74923706 95.12814331 C70.74168902 100.54324413 70.72211907 105.9582335 70.6998291 111.37329102 C70.67553134 117.90481769 70.66654755 124.43638213 70.65492249 130.96794128 C70.63568743 140.83287113 70.5973038 150.69755761 70.5625 160.5625 C54.3925 160.5625 38.2225 160.5625 21.5625 160.5625 C21.2325 156.9325 20.9025 153.3025 20.5625 149.5625 C19.48935547 150.45001953 19.48935547 150.45001953 18.39453125 151.35546875 C2.15862473 164.23077366 -14.18347091 165.99794669 -34.4375 164.5625 C-44.20982891 163.0689206 -53.08130093 158.71430917 -61.4375 153.5625 C-61.4375 152.9025 -61.4375 152.2425 -61.4375 151.5625 C-62.33662109 151.1603125 -62.33662109 151.1603125 -63.25390625 150.75 C-69.93292888 147.11775871 -73.77537585 139.39361102 -76.4375 132.5625 C-80.11983107 119.89375475 -79.83933679 105.88726329 -74.18359375 93.90625 C-66.28510883 79.61580316 -51.4099725 72.50496945 -36.4375 67.5625 C-31.74112123 66.37782788 -27.03053854 65.51937286 -22.25 64.75 C-20.96657715 64.53770752 -19.6831543 64.32541504 -18.36083984 64.10668945 C-5.73887237 62.12794525 6.81658031 62.0331844 19.5625 62.5625 C19.03201128 55.31767881 18.14636396 50.5993732 12.5625 45.5625 C4.53276181 40.54753716 -5.51212512 39.39541951 -14.66015625 41.37890625 C-24.38656782 43.84080949 -32.83150362 47.69610926 -40.48046875 54.3359375 C-42.4375 55.5625 -42.4375 55.5625 -44.35546875 55.56640625 C-47.42243591 54.08758719 -49.38214059 51.9348427 -51.75 49.5 C-52.233479 49.00556396 -52.71695801 48.51112793 -53.21508789 48.00170898 C-56.6006515 44.51230411 -59.849384 40.91833227 -63 37.21484375 C-64.54835025 35.38930518 -64.54835025 35.38930518 -66.875 33.1875 C-68.4375 31.5625 -68.4375 31.5625 -68.4375 29.5625 C-69.4275 29.2325 -70.4175 28.9025 -71.4375 28.5625 C-71.1946396 25.27629517 -70.2978003 24.43464983 -67.8125 22.16015625 C-66.69715965 21.30239525 -65.57150761 20.45792542 -64.4375 19.625 C-63.84517578 19.18260986 -63.25285156 18.74021973 -62.64257812 18.28442383 C-44.15612207 4.68302884 -22.5955277 -0.25336206 0 0 Z M-25.1171875 102.8671875 C-27.98215594 106.54587478 -29.56290679 109.9530741 -29.3359375 114.67578125 C-28.39369619 119.58097866 -26.5368504 122.57339034 -22.4375 125.5625 C-12.63091363 129.81430668 -4.16041385 129.44347102 5.76171875 125.8125 C13.78106163 122.23343484 17.36138437 116.57851682 20.5625 108.5625 C21.62658392 105.27110998 21.6660651 102.2619682 21.625 98.8125 C21.61597656 97.82765625 21.60695313 96.8428125 21.59765625 95.828125 C21.58605469 95.08046875 21.57445312 94.3328125 21.5625 93.5625 C-3.26942975 93.12799089 -3.26942975 93.12799089 -25.1171875 102.8671875 Z " fill="#FEFEFE" transform="translate(913.4375,180.4375)"/>
</svg>
